<svg class="game-card-evil__tail" xmlns="http://www.w3.org/2000/svg" width="184" height="91" viewBox="0 0 184 91" fill="none">
    <path d="M0.0601896 61.6723L0.0601127 56.1388L0.060175 0.251058C0.060175 0.251058 1.13568 41.3361 21.0872 61.6723C29.5824 70.3295 40.043 80.601 52.3064 80.666C67.2 80.754 79.6873 74.3401 92.8293 68.2335C106.292 61.9753 122.399 54.6007 137.274 53.2043C131.753 45.8547 124.894 39.9668 118.222 33.7086C129.925 37.0111 141.168 41.6159 152.355 46.3355C162.742 50.7118 173.308 55.2659 183.137 60.782C159.974 61.1587 138.08 72.5566 117.369 81.8713L136.475 57.2262C125.356 60.6778 115.607 66.3099 105.5 71.9202C84.9965 83.2946 64.3633 92.6664 40.1974 89.444C31.3631 88.2632 22.3306 86.0298 14.4059 81.8607C1.72024 71.0792 0.0601896 61.6723 0.0601896 61.6723Z" fill="#152A36"/>
</svg>