<svg xmlns="http://www.w3.org/2000/svg" width="146" height="139" viewBox="0 0 146 139" fill="none">
  <path d="M93.9455 0.0247803C96.9322 5.17597 98.223 10.9357 97.3946 16.86C96.9698 19.9002 95.8069 22.8111 94.5046 25.5719C93.8871 26.8796 93.213 28.3569 92.0101 29.2298C90.8534 30.0683 89.6246 30.1693 88.254 29.9717C87.4667 29.6093 86.6444 29.1518 86.0602 28.5014C85.0814 27.4134 84.786 26.0331 85.1904 24.6333C85.7814 22.5877 87.4738 20.9223 88.6534 19.1884C91.4685 15.051 93.3522 9.80325 93.7992 4.82527C93.9419 3.23783 93.8549 1.6222 93.9455 0.0247803Z" fill="#11212A"/>
  <path d="M50.4833 0.0248108C47.4966 5.176 46.2058 10.9357 47.0342 16.86C47.4589 19.9002 48.6219 22.8112 49.9242 25.572C50.5417 26.8796 51.2158 28.3569 52.4187 29.2298C53.5754 30.0684 54.8042 30.1693 56.1748 29.9717C56.9621 29.6093 57.7844 29.1519 58.3686 28.5015C59.3474 27.4135 59.6427 26.0331 59.2384 24.6333C58.6474 22.5877 56.955 20.9224 55.7754 19.1884C52.9603 15.051 51.0766 9.80328 50.6296 4.8253C50.4869 3.23786 50.5739 1.62223 50.4833 0.0248108Z" fill="#11212A"/>
  <path d="M59.8292 69.9241L68.0094 67.2363C66.8976 68.2007 65.3851 68.7693 64.0573 69.3957C63.0897 69.8512 62.1259 70.4123 61.1023 70.7296L61.0601 70.5643C61.2434 70.438 61.4179 70.3243 61.6188 70.2269L61.7946 70.1434L61.3039 70.0033L61.3612 69.8292L61.1036 69.7683C60.6777 69.9329 60.3892 70.0359 59.9313 69.9467L59.8292 69.9241Z" fill="#11212A"/>
  <path d="M59.8292 69.9241L59.9313 69.9467C60.3892 70.0359 60.6777 69.9329 61.1036 69.7683L61.3612 69.8292L61.3039 70.0033L61.7946 70.1434L61.6188 70.2269C61.4179 70.3243 61.2434 70.438 61.0601 70.5643L61.1023 70.7296L57.1659 72.6445C56.6966 72.8833 55.993 73.472 55.5224 73.5782L55.4033 73.521C55.5161 73.232 55.8909 73.0655 56.1259 72.774C55.8752 72.5528 55.6289 72.3084 55.3467 72.1294L55.0695 72.2801L54.8654 72.2632C54.4024 72.6533 54.1322 72.6439 53.5375 72.6471C55.5571 71.5419 57.6107 70.565 59.8292 69.9241Z" fill="#11212A"/>
  <path d="M53.5375 72.6471C54.1322 72.6439 54.4024 72.6533 54.8654 72.2632L55.0695 72.2801L55.3467 72.1294C55.6289 72.3084 55.8752 72.5528 56.1259 72.774C55.8909 73.0655 55.5161 73.232 55.4033 73.521L55.5224 73.5782C54.924 74.175 54.1409 74.6758 53.4902 75.228C52.1454 76.369 50.9038 77.76 50.0679 79.3162C49.4065 80.547 48.7337 82.5267 49.2062 83.9196L49.2673 84.083C49.3926 84.4216 49.5142 84.7646 49.7876 85.0153C50.7476 85.8968 52.5126 85.9401 53.7454 85.9056C58.0042 85.7856 62.2524 84.7552 66.4332 84.0063C73.3774 82.7623 80.3418 81.519 87.3817 80.9497C92.0123 80.5753 98.3952 81.4354 101.991 84.5837C104.151 86.4754 105.379 88.8792 105.544 91.7398C105.673 93.9833 105.202 96.139 104.162 98.1218C99.6796 106.662 88.2283 106.984 82.0829 113.853C77.5147 118.96 78.3884 125.851 78.7619 132.122L81.0788 130.048C80.3802 132.799 79.9367 135.857 78.9465 138.491L78.5352 137.432C78.0167 135.578 76.6486 133.615 75.7043 131.938L77.0649 132.146C77.412 131.74 77.0076 130.143 76.9182 129.526C76.4356 126.214 76.4514 122.807 77.1978 119.533C78.5364 113.661 82.4803 109.093 87.5279 105.962L96.1924 101.048C98.4966 99.5895 100.84 97.6179 101.428 94.8296C101.801 93.0648 101.411 91.3653 100.405 89.8838C99.4837 88.5261 97.8711 87.7282 96.3556 87.1998C92.2907 85.7837 87.897 86.03 83.6835 86.4132C75.6583 87.1433 67.8858 89.1161 59.9828 90.5976C55.9368 91.3565 51.1709 92.2587 47.0695 91.5444L46.4937 91.4325C45.2818 91.1197 44.0188 90.3217 43.4216 89.1908C42.3848 87.2269 42.6279 84.7891 43.2881 82.7479C44.8005 78.0729 49.3536 74.8335 53.5375 72.6471Z" fill="#11212A"/>
  <path d="M5.09506 0.576266L6.45251 3.79004C7.67937 6.47988 9.29305 8.92234 11.0272 11.3084C18.0419 20.9573 28.469 28.2204 39.3687 32.8748L44.382 34.7663C44.5873 35.7866 44.6613 36.8043 44.9513 37.8106C45.6878 40.3684 47.1448 43.0202 49.0498 44.8999C50.541 46.3713 52.2829 47.5171 53.9851 48.7243C56.0531 50.19 57.6917 51.6189 59.0848 53.7649C60.5908 56.0836 61.3518 58.8916 62.1939 61.5023L59.6244 59.3465C57.2071 57.6078 53.8866 57.0949 50.9974 57.5777C48.2209 58.1141 45.3839 59.5202 43.2676 61.3864C40.0646 56.3192 36.6258 52.0312 30.7177 50.0021C24.0974 47.7283 17.2395 49.7043 11.2363 52.6633C8.01328 49.6386 5.57474 45.5441 3.73173 41.5761C2.09436 38.0508 1.22725 34.1734 0.778049 30.3316C-0.408044 20.1877 1.62277 10.0859 5.09506 0.576266Z" fill="#11212A"/>
  <path d="M140.603 0.576266L139.246 3.79004C138.019 6.47988 136.405 8.92234 134.671 11.3084C127.656 20.9573 117.229 28.2204 106.33 32.8748L101.316 34.7663C101.111 35.7866 101.037 36.8043 100.747 37.8106C100.011 40.3684 98.5535 43.0202 96.6486 44.8999C95.1573 46.3713 93.4155 47.5171 91.7132 48.7243C89.6452 50.19 88.0066 51.6189 86.6135 53.7649C85.1076 56.0836 84.3466 58.8916 83.5044 61.5023L86.0739 59.3465C88.4912 57.6078 91.8117 57.0949 94.7009 57.5777C97.4774 58.1141 100.314 59.5202 102.431 61.3864C105.634 56.3192 109.072 52.0312 114.981 50.0021C121.601 47.7283 128.459 49.7043 134.462 52.6633C137.685 49.6386 140.124 45.5441 141.967 41.5761C143.604 38.0508 144.471 34.1734 144.92 30.3316C146.106 20.1877 144.076 10.0859 140.603 0.576266Z" fill="#11212A"/>
</svg>