<svg class="game-card-evil__horns" xmlns="http://www.w3.org/2000/svg" width="148" height="54" viewBox="0 0 148 54" fill="none">
    <path d="M11.722 0C11.7123 12.0651 13.6848 22.2765 21.6276 31.8749C23.5507 34.1993 26.6108 36.3493 28.1409 38.8441C22.4656 41.4497 16.926 44.17 11.941 47.9358L5.55419 53.1211C1.7245 44.3488 -0.00267931 36.0614 0.586458 26.4663C1.19456 16.5597 3.94829 6.724 11.722 0Z" fill="#223C4B"/>
    <path d="M136.332 0C140.047 3.17928 142.54 6.43669 144.258 11.003C149.41 24.6924 148.606 39.8667 142.592 53.1211L135.944 47.7033C131.066 43.9912 125.514 41.3723 119.996 38.7466L123.043 35.8C129.981 28.8962 135.071 19.7428 136.184 9.98296C136.555 6.72949 136.355 3.27651 136.332 0Z" fill="#223C4B"/>
</svg>