<svg xmlns="http://www.w3.org/2000/svg" width="18" height="36" viewBox="0 0 18 36" fill="none">
  <path d="M5.94783 14.2548L8.29565 16.8966L1.5 23.5L0.5 24.5L0 24V0H1.04348L16.8 16.2361L18 18.8229L16.8 19.0981V19.5934H16.1739L15.4957 18.5477L14.8174 18.8229L15.4957 21.4647H14.4522C14.1703 21.0634 13.6807 20.3657 13.5717 20.2091C13.6996 20.4355 13.9673 22.195 14.087 23.0608L9 28.5L6 31.5L4 33.5V34.5V36H0V32.6374V31.4265L12.313 18.8229L4.8 9.35641H4.22609L4.06957 15.6307L5.94783 14.2548Z" fill="#28B8AF"/>
</svg>