<svg xmlns="http://www.w3.org/2000/svg" width="15" height="15" viewBox="0 0 15 15" fill="none">
    <path
    d="M1.42843 0C1.06308 0 0.696964 0.139597 0.418393 0.418529C-0.139464 0.976386 -0.139464 1.88076 0.418393 2.43862L5.47977 7.5L0.418396 12.5614C-0.139461 13.1192 -0.139461 14.0236 0.418396 14.5815C0.696967 14.86 1.06308 15 1.42844 15C1.7938 15 2.15991 14.8604 2.43849 14.5815L7.49987 9.5201L12.5613 14.5815C13.1184 15.1393 14.0238 15.1393 14.5813 14.5815C15.1396 14.0233 15.1396 13.1196 14.5813 12.5614L9.51996 7.50001L14.5813 2.43863C15.1392 1.88077 15.1392 0.9764 14.5813 0.418543C14.0242 -0.138957 13.1184 -0.139314 12.5613 0.418543L7.49988 5.47993L2.4385 0.418546C2.15993 0.139975 1.79379 0 1.42843 0Z"
    fill="white" />
</svg>