<svg xmlns="http://www.w3.org/2000/svg" fill="none" width="15" height="15" viewBox="0 0 15 15">
  <path fill="#fff" d="m1.679 11.082 9.236-.004c.73.018 1.774-.11 2.442.105.42.136.484.408.675.776-.099.46-.15.594-.457.948-.75.133-1.588.066-2.35.07l-4.195.01H3.38c-.662 0-1.405.075-2.039-.131-.3-.398-.35-.52-.412-1.017.248-.426.32-.526.75-.758ZM15 3.006v1.622c-.31.425-.405 1.119-.526 1.626-.346 1.457-.511 3.039-1.26 4.349-.723-.009-1.422-.165-2.143-.184l-6.262-.008c-1.014-.006-2.088.236-3.084.113-.525-.555-.542-1.129-.693-1.851C.752 7.33.614 5.693 0 4.48V2.979c1.06.403 2.025.848 3.003 1.43.334.862.453 1.4 1.318 1.82.491-.062 1.011-.21 1.33-.627.096-.126.162-.28.21-.43-.187-.79-.523-1.331-.85-2.055C5.753 2.077 6.586.891 7.496 0c.69.821 2.133 2.188 2.39 3.202-.254 1.109-.962 1.314-.496 2.576.36.348.704.405 1.184.479.533-.162.839-.435 1.103-.934.672-1.27 1.428-1.75 2.783-2.178l.539-.14Z"/>
</svg>
