<svg xmlns="http://www.w3.org/2000/svg" width="200" height="300" fill="none" viewBox="0 0 100 151">
  <path fill="#152A36" d="M65.671 57.115c1.297.672 2.553 1.151 4.004 1.394.726.12 1.48.192 2.213.238.298.019.783-.055 1.016.1-.216.078-.42.186-.626.285-1.285.463-2.639.761-3.98.356-1.286-.388-2.011-1.239-2.627-2.373Zm-2.048 5.657h.065c.326-.01.665-.036.985.041.677.164 1.328.618 1.908.985l2.806 1.865-1.194.136c-1.425.248-2.37.928-3.186 2.085-.57.86-.833 1.905-1.133 2.88l-.453-.854c-.31-.692-.526-1.44-.758-2.162-.399-1.245-.92-2.385-.395-3.681.268-.659.725-1.009 1.355-1.295Zm-3.265 18.692c2.322 1.64 4.848 2.747 7.603 3.447 1.268.322 2.566.463 3.725 1.104 1.182.654 2.183 1.722 3.18 2.62.711.64 1.697 1.316 2.222 2.11-.223.13-.782-.292-1.036-.412-1.145-.545-2.363-1.031-3.593-1.345-.674-.172-1.373-.242-2.053-.39-1.299-.281-2.925-.63-4.107-1.25-1.115-.583-1.866-1.527-2.772-2.363-.7-.644-1.481-1.258-2.104-1.974-.404-.464-.734-1.03-1.065-1.547Zm-2.798-6.819.13.066c.883.427 1.614 1.065 2.488 1.48 1.595.757 3.306 1.05 4.736 2.162 1.033.804 1.616 2.02 2.515 2.957 1.141 1.19 2.52 1.943 3.845 2.894-3.03-.732-6.317-1.157-9.076-2.671-1.109-.609-2.238-1.51-2.942-2.566-.82-1.23-1.29-2.917-1.697-4.322Zm6.992-34.748c.917.683 1.823 1.373 2.831 1.919 2.743 1.486 5.587 1.924 8.58 2.548 3.692.77 7.037 4.081 9.019 7.118-1.79-1.418-3.615-2.731-5.74-3.615-1.483-.617-3.099-.972-4.666-1.3-1.835-.382-3.69-.758-5.41-1.523-2.43-1.078-3.67-2.736-4.614-5.147Z"/>
  <path fill="#152A36" d="M61.237 64.839c.075-.002.148.027.22.046.19 2.877.875 5.55 2.208 8.122.893 1.723 2.012 3.27 3.094 4.874l-3.221-1.536c-1.77-.73-4.747-1.062-5.815-2.742-.388-.608-.9-2.291-.724-2.992l.03-.104c.343-1.186 3.14-5.051 4.208-5.668Zm3.468 22.823c.734.402 1.478.868 2.26 1.167.99.379 2.073.532 3.111.733 2.309.447 5.124 1.12 6.794 2.87.913.955 1.662 2 2.647 2.9.78.712 1.712 1.232 2.482 1.94.535.491.946 1.083 1.35 1.68-1.497-.783-3.11-1.318-4.71-1.851-2.872-.957-6.308-1.698-8.771-3.499-.791-.578-1.432-1.34-2.077-2.068a44.776 44.776 0 0 1-3.086-3.872Zm5.581 7.345c2.038 1.314 4.199 2.2 6.506 2.942.962.31 1.989.424 2.94.743.55.185 1.078.542 1.578.835.659.387 1.364.769 1.949 1.263.716.606 1.415 1.511 1.964 2.271 1.067 1.478 1.292 3.531 1.58 5.281.63 3.823 1.147 7.857.48 11.705a.863.863 0 0 1-.14.362c-.17-.175-.055-1.845-.127-2.24-.376-2.066-1.468-4.159-2.648-5.877-.994-1.448-2.169-2.874-3.552-3.971l-2.056-1.508c-.352-.286-.576-.708-.922-1.002-.604-.516-1.24-.932-1.792-1.522-1.446-1.548-2.334-3.473-3.384-5.288l-2.376-3.994Zm3.798-32.671.084-.005c1.237-.025 2.468.475 3.373 1.308 1.282 1.182 2.407 3.295 2.458 5.049.023.778-.156 1.532-.727 2.1-.608.605-1.386.828-2.225.824-.703-.003-1.504-.184-1.997-.724-.357-.392-.535-1.013-.51-1.533.026-.563.401-1.028.808-1.384a.59.59 0 0 1-.084.333l-.224.476c-.112.328-.021.8.135 1.1.155.297.415.547.742.642.466.137 1.178.075 1.611-.153.519-.273.732-.62.898-1.17.307-1.014.027-2.328-.483-3.236-.493-.88-1.042-1.31-2-1.576-1.076.276-1.972.781-2.541 1.774-.41.713-.42 1.561-.194 2.336.65 2.221 3.161 5.414 5.513 5.927.767.167 2.022-.067 2.676.319.413.244.604.653.73 1.096l.041.152c.23.804.148 1.633.147 2.46 0 .337-.041.797.15 1.087.374.566.892.74 1.529.869l1.449-.304c-.376 1.028-1.002 2.525-.759 3.627.055.248.207.422.421.55.49.294 1.307.069 1.827-.077l.128-.037c-.128.76-.361 1.817.048 2.512.31.524.909.665 1.462.783l.136.028c-1.572 1.054-2.7 1.328-4.614 1.206a2.77 2.77 0 0 1-.362.478c-.686.701-1.823.608-2.72.607.997-1.555 1.249-2.938.952-4.757-.239-1.461-.856-3.134-1.758-4.323-.899-1.184-2.174-2.182-3.303-3.143-1.653-1.407-3.328-2.786-4.864-4.322-1.112-1.112-2.367-2.411-2.608-4.027-.262-1.764.855-3.697 1.88-5.048.836-1.101 1.366-1.629 2.775-1.824Z"/>
  <path fill="#152A36" d="M75.404 104.998c.74.793 1.351 1.668 2.176 2.391.595.521 1.303.895 1.936 1.365 1.383 1.026 2.741 2.593 3.69 4.019 1.91 2.87 3.327 6.927 2.587 10.385-.25 1.164-.736 2.301-1.235 3.378-1.39 3.005-3.521 6.206-6.056 8.407-1.137.986-2.455 1.762-3.722 2.571-1.453.983-3.092 1.675-4.778 2.138.912-.796 1.81-1.571 2.61-2.483 1.514-1.727 3.006-3.637 4.046-5.685.945-1.86 1.532-3.875 1.902-5.922.194-1.078.386-2.206.341-3.303-.064-1.596-.534-3.446-1.065-4.954-.607-1.724-2.012-3.047-2.408-4.854-.288-1.315-.416-2.773-.278-4.111.119-1.163.334-2.157.254-3.342ZM13.17 32.286c1.355-.133 2.745.022 4.1.108 4.88.308 9.679.924 14.412 2.192l-1.527.69a15.7 15.7 0 0 0-5.62 4.771c-.863 1.184-1.486 2.498-2.096 3.822-.816 1.767-1.558 3.563-2.16 5.414-1.804 5.545-2.458 11.39-.997 17.099.618 2.415 1.576 4.67 2.714 6.882.708 1.413 1.403 3.068 1.281 4.68-.15 1.993-1.523 3.264-2.947 4.495.644-2.152.81-4.285.308-6.49-.53-2.333-1.753-4.509-2.833-6.625l-2.416-5.147c-3.498-8.248-5.38-17.139-4.382-26.103.16-1.44.246-3.239.838-4.572.28-.633.69-.967 1.326-1.216Zm46.951 10.087c.953.74 1.913 1.473 2.99 2.03 3.26 1.687 6.72 2.086 10.258 2.794 2.916.584 5.864 1.447 8.49 2.858 1.692.909 3.065 2.238 4.287 3.695.856 1.021 1.744 2.06 2.395 3.226 1.892 3.391 2.279 7.398 4.118 10.846.333.623.694 1.395 1.179 1.914.494.528 1.693.933 1.905 1.647l-.493.158-.03.142c.464.104 1.258.212 1.531.621-.2.141-.317.166-.389.41.484.014 1.135-.043 1.589.123-.043.218-.003.145-.133.318l-.093.117c.423.43 1.35-.056 1.88.604.484.602.32 2.662.221 3.405-.16 1.203-.619 3.114-1.61 3.881-.658.138-1.205-.206-1.797-.46l-1.784.667.34-1.925-1.725.562-.026-1.562-1.721.385-.04-2.01-1.793.899.178-2.43c-1.539 1.527-2.838 2.287-5.04 2.289.06-.27.37-.577.538-.801.536-.72 1.704-2.105 1.714-3.053.01-.926-2.221-1.88-2.931-2.329a6.022 6.022 0 0 1-1.236-1.023c-.862-.952-1.022-2.098-1.403-3.268-.37-1.14-.937-2.158-1.805-2.996-1.864-1.798-4.388-2.686-6.945-2.648-.984.15-1.893.468-2.841.755-1.118.338-2.23.642-3.327 1.048.373-.45.781-.945 1.252-1.295 1.06-.791 2.303-1.138 3.52-1.602l1.616-.71c2.863-1.221 5.716-.126 8.421.96 1.402.561 3.317 1.25 3.628 2.935.138.748.183 1.412.493 2.122l.053.119-.97 2.084 1.525-1.315c.403.262.74.635 1.133.92.925.674 1.924 1.224 2.938 1.751-.469-1.91-.93-3.458-1.977-5.148l1.009-2.374-1.99 1.215c-1.203-1.245-2.594-2.207-4.136-2.99-1.1-.559-2.294-1.126-3.51-1.38-1.39-.29-2.794-.184-4.203-.228a28.232 28.232 0 0 1-3.598-.357c-1.304-.216-2.559-.66-3.5-1.624-.398-.408-.724-.909-1.055-1.37 1.016.27 1.84.823 2.923.98 3.21.468 6.098-1.411 9.32-.96l.173.026c.845.119 1.564.418 2.349.73l-.005-.059c-1.997-2.69-4.887-4.253-8.033-5.276-2.65-.861-5.396-1.368-7.979-2.443-2.815-1.17-4.686-2.766-5.848-5.6Z"/>
  <path fill="#152A36" d="M10.001 34.055c.143.287-.414 3.099-.486 3.694-.364 2.97-.5 6.034-.242 9.02.756 8.753 3.788 16.605 8.31 24.083-.488-.027-.985-.183-1.474-.248-1.134-.15-2.424-.203-3.56-.045a6.544 6.544 0 0 0-4.428 2.63c-1.394 1.9-1.936 4.34-2.425 6.597-2.22 10.248-1.422 20.802.215 31.068l.64 4.047c-.1-.198-.066-.112-.132-.319C2.206 101.187-.468 86.64.068 72.572c.345-9.064 1.947-17.99 4.874-26.581 1.383-4.06 3.042-8.145 5.06-11.936ZM69.016.04c4.43-.172 8.884.2 13.184 1.3 6.298 1.608 11.897 4.889 15.275 10.575 2.081 3.505 3.169 7.262 2.117 11.285-.663-2.668-1.31-5.787-2.78-8.14-.73-1.165-1.778-2.22-2.826-3.102-4.529-3.815-10.945-5.434-16.791-4.9-3.399.311-7.645 1.538-9.89 4.255-1.228 1.486-1.422 3.464-1.128 5.305.155.968.44 1.884.534 2.866-3.67-3.258-7.465-5.617-12.302-6.792l-1.505-.287c-3.974-.623-8.027-.218-11.908.76-4.69 1.182-9.101 3.087-13.24 5.57-4.472 2.683-8.59 5.933-12.812 8.98.596-.918 1.378-1.768 2.09-2.603l3.932-4.39c6.246-6.649 13.64-12.668 22.325-15.791 3.736-1.344 7.591-2.18 11.476-2.96 4.698-.943 9.45-1.768 14.248-1.93Z"/>
  <path fill="#152A36" d="M46.884 15.153c3.797-.267 7.665.373 11.151 1.886 6.803 2.953 11.55 9.285 14.222 15.99l-4.09-3.434c-2.735-2.288-5.963-4.82-9.689-4.996-3.41-.162-6.495 1.243-8.976 3.518-2.846 2.61-4.013 5.735-4.182 9.51l-.045.53c-.052.021-.099.062-.154.065-.087.004-.457-.206-.571-.257l-2.064-.904-4.521-1.747c-5.166-1.829-10.544-3.176-16.006-3.731-3.226-.328-6.408-.34-9.644-.228l.068-.083c.576-.663 1.282-1.176 1.97-1.717l3.127-2.351C26.046 21 36.172 15.929 46.884 15.154ZM13.387 72.364l.9-.034c1.156.03 2.093.595 2.87 1.417 2.955 3.123 1.994 7.714 1.868 11.583l4.166-2.456c.281.783.692 1.56 1.034 2.32l2.45 5.374c3.071 6.93 5.788 14.167 6.901 21.694 1.325 8.962.686 17.939-4.111 25.867-1.643 2.715-3.71 5.23-5.61 7.773l-3.527 4.686c-.372-1.262.219-3.222.378-4.521l.257-2.952c.323-5.029-.187-10.141-1.807-14.93-1.273-3.765-3.299-7.168-6.752-9.326-.824-.515-1.708-.855-2.564-1.3-.628-.327-1.068-.982-1.27-1.644-.344-1.122-.39-2.445-.54-3.61l-.724-5.434-1.188-10.757c-.416-5.157-.46-10.24 1.02-15.256.482-1.636 1.066-3.268 1.91-4.757 1.023-1.805 2.287-3.177 4.339-3.737Z"/>
  <path fill="#152A36" d="M33.972 36.345c.986-.11 2.039.08 3.017.21-1.174.521-2.354 1.023-3.448 1.702-2.41 1.495-4.276 3.611-5.554 6.124-3.322 6.53-2.222 16.002-.835 22.97.49 2.463 1.047 4.964 1.839 7.35l.463.246c1.925.905 3.832.797 5.803.117l1.583-5.098c-.908-.032-1.744-.066-2.534-.58-1.362-.887-1.766-2.411-2.082-3.9l.814.577c1.279.858 2.775 1.195 4.296.892.292-.058.748-.13.97-.32.258-.224.547-.915.726-1.223l1.443-2.297c-.918-.203-1.832-.47-2.493-1.185-1.088-1.178-1.105-2.718-1.05-4.22 1.117 1.34 2.263 2.3 4.067 2.521.39.048 1.264.15 1.62.024.485-.172 1.05-.897 1.426-1.251l2.239-1.925c-.937-.71-1.773-1.462-2.204-2.582-.601-1.562-.231-3.092.443-4.553.27.576.466 1.187.781 1.742.786 1.383 2.02 2.379 3.479 2.994.191.08.595.292.792.304.15.01 1.121-.603 1.29-.693a40.055 40.055 0 0 1 3.61-1.65c-1.027-.704-1.921-1.407-2.265-2.661-.42-1.532.348-2.946 1.111-4.214.262 1.102.508 2.117 1.193 3.05.979 1.334 2.406 1.988 3.998 2.271.641.115 1.262-.092 1.893-.221a18.87 18.87 0 0 1 1.956-.28c4.867-.47 10.587.5 14.815 3.013l-2.911.856c-.67.203-1.428.51-2.125.561-1.749.128-3.958-.858-5.555-1.441-.017 1.053.066 2.024.533 2.989l.047.094-2.397-.037c.329.89.624 2.184 1.264 2.893.438.485.96.758 1.53 1.057-.273.24-1.203 1.197-1.505 1.227-.557.054-1.157-.161-1.746-.092l-.146.02c-1.108.136-2.113.528-3.063 1.108-2.579 1.574-4.507 4.429-5.16 7.35-.588 2.635-.122 5.499.892 7.97.743 1.812 1.754 3.485 2.9 5.07l2.437 3.249 5.407 8.49c1.354 2.06 2.917 3.993 4.167 6.12 1.19 2.025 2.042 4.192 1.944 6.568-.056 1.368-.303 2.723-.407 4.087-.057.734-.131 1.64.097 2.348.276.854.899 1.603 1.38 2.351 1.949 3.034 2.04 7.069 1.248 10.507-1.233 5.354-4.939 10.006-9.62 12.856-1.389.845-2.918 1.08-4.519 1.144-3.26.13-6.522-.515-9.674-1.274 2.172-.102 4.204-.089 6.35-.576 2.724-.617 5.484-1.951 7.013-4.361-2.513 2.236-5.032 3.567-8.481 3.424-3.135-.13-6.255-1.891-8.343-4.145-2.466-2.663-3.698-5.888-3.557-9.499.953 2.229 1.922 3.98 3.888 5.495 2.159 1.663 5.09 2.624 7.828 2.267 2.806-.366 4.752-1.699 6.469-3.896-.89.598-1.653 1.203-2.675 1.573-2.615.947-5.676.336-8.123-.804-3.28-1.527-5.673-4.206-6.901-7.574 2.209 2.477 5.31 4.662 8.671 5.103 2.675.35 5.255-.364 7.439-1.922-3.332.28-6.286-.054-9.357-1.451-3.19-1.452-6.578-3.867-7.824-7.255-1.357-3.692-.792-8.11.891-11.607 1.074-2.232 2.8-4.581 5.242-5.423 1.553-.535 3.027-.24 4.457.47 1.472.729 2.322 1.832 2.838 3.368.602 2.065.292 4.305-.355 6.324a4.844 4.844 0 0 0-.526-1.906c-.46-.893-1.238-1.724-2.226-2.022-.782-.237-1.454-.107-2.16.29-1.04.587-1.84 1.862-2.158 2.987-.54 1.91-.212 4.09.767 5.806a6.855 6.855 0 0 0 4.179 3.237c2.458.678 5.575.183 7.783-1.07 1.429-.811 2.37-2.17 2.781-3.734.32-1.214.299-2.461.18-3.7-.448-4.646-2.786-9.335-4.933-13.439l-1.928-3.637-4.016-6.542c-2.521-4.238-5.093-9.268-5.029-14.299.029-2.195.594-4.69 1.14-6.81-.353.201-.67.549-.963.829-.809.77-1.53 1.613-2.093 2.58-.433.744-.782 1.626-.871 2.487-.629 6.101 5.99 13.684 8.61 19.038 1.849 3.775 3.06 7.748 4.143 11.791l-1.94-2.151c-1.906-1.825-4.134-3.151-6.835-3.08-2.736.073-4.47 1.474-6.256 3.355-.08-.523.03-1.178-.006-1.728-.099-1.521-.354-3-.692-4.486-.685-3.022-1.843-5.855-2.647-8.827-1.802-6.668.361-13.325 3.241-19.33-.907.792-1.632 1.945-2.217 2.983-2.622 4.647-3.805 10.832-2.803 16.102.279 1.465.854 2.728 1.32 4.128a21.42 21.42 0 0 1 .843 3.495c.604 3.968.528 8.106-.029 12.075-1.415-4.515-3.468-8.875-5.467-13.16l-1.633-3.442c-.282-.573-.774-1.322-.909-1.939-.123-.568-.053-1.236-.035-1.815l.356-4.608-1.095.035c-1.732-.03-2.725-.731-3.904-1.916 1.024 3.396 2.444 6.677 3.778 9.96L40.74 104.6c.627 1.51 1.246 2.95 1.694 4.529.832 2.937 1.246 5.92 1.535 8.952.104 1.081.32 2.568.15 3.629-.075.466-.33.954-.476 1.406-.406 1.248-.506 2.452-.438 3.758.185 3.53 2.379 6.397 4.931 8.667-.942-.202-1.914-.42-2.785-.841a9.771 9.771 0 0 1-2.515-1.742c-1.292-1.238-2.63-3.562-4.37-4.106-1.516-.474-2.834.355-4.116 1.042.68-3.051 1.154-6.16 1.263-9.287.329-9.43-2.29-18.33-6.125-26.857l-3.458-7.576c-.533-1.2-1.149-2.409-1.53-3.666-.436-1.431.188-2.574.355-3.982a11.85 11.85 0 0 0-.375-4.607c-.48-1.72-1.35-3.239-2.093-4.848-.797-1.726-1.337-3.636-1.613-5.511-.528-3.602-.226-7.127.498-10.683.823-4.04 2.195-8.068 4.706-11.393 2.08-2.753 4.522-4.66 7.994-5.139Z"/>
</svg>
