<svg xmlns="http://www.w3.org/2000/svg" width="20" height="20" fill="none" viewBox="0 0 20 20">
    <path fill="#fff" d="M0 10.216V20h20V0H0v10.216Zm0 0c.27.486 2.77 2.946 3.249 3.145.273-.022.388-.011.58-.232.15-.172.203-.272.184-.507-.03-.389-.443-.69-.705-.945-.35-.343-.666-.675-1.044-.994l3.712-.013c.037.539.007 1.097.006 1.639l-.004 3.072c.001.481-.054 1.091.034 1.56.036.199.182.459.314.61.221.253.55.42.884.444.617.044 1.26.011 1.878.012l3.537.002h2.655c.492 0 1.023.035 1.512-.02.258-.03.603-.13.8-.302.273-.238.382-.68.404-1.027.058-.926.015-1.876.016-2.805l.002-5.32V4.918c-.001-.604.047-1.27-.026-1.868-.029-.24-.15-.43-.307-.607-.265-.298-.562-.42-.957-.442-1.966-.112-3.99-.02-5.962-.022H8.448c-.417.001-.88-.03-1.29.031a1.626 1.626 0 0 0-.797.393c-.158.145-.303.438-.342.645-.115.598-.04 1.336-.04 1.948l-.02 4.33-3.515-.003-.062-.074 1.312-1.322c.18-.196.32-.381.307-.657a.594.594 0 0 0-.225-.453c-.17-.151-.306-.166-.523-.15C2.841 6.702.396 9.27 0 9.737V0h20v20H0v-9.784Zm11.107-.855c.23.007.42.01.63.122.133.147.214.274.205.48-.007.173-.05.426-.187.546a.648.648 0 0 1-.369.14c-.377.042-.81-.003-1.194 0l-3.345-.013-.84-.008-.005-1.287 5.105.02Z"/>
  </svg>
  