<svg xmlns="http://www.w3.org/2000/svg" width="26" height="31" fill="none" viewBox="0 0 26 31">
  <path fill="#fff" d="M12.764 26.271c1.245-2.997 3.812-6.178 5.673-8.827l-.175-.332c-.985.027-1.69.205-2.693.041l-.372-.452c.78-2.75 1.871-6.145 3.384-8.546 2.923 1.049 5.071 2.02 6.508 5.11.906 1.95.453 4.57-.184 6.542-1.31 4.058-4.505 7.03-8.062 8.868-.417.215-1.13.667-1.56.738-1.412-.063-2.54.158-3.93.16.541-1.175 1.378-1.957 1.41-3.302Z"/>
  <path fill="#fff" d="M10.13 30.679H0V.98h15.091c.062.216.258.681.253.887-.023.899-.482 2.223-.725 3.084l-1.689 5.88c-.935 3.315-1.614 6.767-2.731 10.02 1.008-.007 2.452-.285 3.263.332-.004.79-.401 1.604-.677 2.329-.646 1.698-1.5 3.401-1.831 5.203.67-.785 1.29-1.543 1.817-2.45-.032 1.345-.869 2.128-1.41 3.303 1.39-.002 2.517-.224 3.93-.16-1.563.495-3.499.63-4.942 1.27h-.219Zm0 0-2.299-.541c-1.67-.466-3.453-1.557-4.344-3.183-.652-1.192-.975-2.771-.94-4.147.067-2.529 1.02-5.242 1.676-7.663L7.232 3.807C7.587 2.393 7.95 1.726 9.166.98H0v29.7h10.13Z"/>
</svg>
