<?xml version="1.0" encoding="utf-8" ?>
<svg xmlns="http://www.w3.org/2000/svg" xmlns:xlink="http://www.w3.org/1999/xlink" width="30" height="25">
	<path fill="white" transform="scale(0.071599 0.0793651)" d="M0 205.287L-0 -0L148.531 0L149.88 0L268.273 -0L270.181 0L419 0L419 209.781L419 242.233L419 315L313.966 315L310.61 315L107.804 315L104.243 315L-0 315L0 247.453L0 205.287ZM107.804 315L310.61 315L309.304 313.491C305.988 309.275 288.572 283.06 289.046 279.125C289.747 278.215 290.847 277.732 291.86 277.246C294.814 275.828 297.864 275.005 300.826 273.738C302.952 272.83 304.909 271.526 307 270.54C312.579 267.912 318.429 265.509 323.539 262.021C320.875 260.251 317.659 257.824 315.633 255.349C312.521 257.152 308.694 258.254 305.355 259.611C299.779 261.876 294.126 264.318 288.418 266.224C284.066 267.677 279.627 268.713 275.203 269.901L260.984 273.735C254.104 275.415 246.844 276.203 239.825 277.042L227.125 278.437C207.848 279.63 188.638 278.53 169.625 275.257C166.172 274.663 162.593 274.397 159.178 273.675C150.635 271.869 142.27 269.343 133.91 266.868L120.625 262.487L112.84 259.173C109.894 257.967 107.138 257.066 104.385 255.389C101.161 257.058 97.8389 259.726 95.1533 262.143C95.6882 262.811 97.6482 263.417 98.4634 263.881C105.727 268.011 113.103 271.638 120.714 275.081C123.96 276.549 127.535 277.375 130.662 279.125C128.233 285.196 123.89 290.897 120.447 296.457L112.448 309.25C111.217 311.101 109.853 313.566 108.027 314.848L107.804 315ZM270.181 0C271.569 0.556603 272.989 0.775342 274.442 1.10575L284.586 2.93005C285.705 3.09756 286.743 3.57836 287.842 3.82823C289.971 4.31254 292.093 4.56787 294.223 5.15255L306.226 8.66713C308.512 9.33831 310.867 9.7592 313.148 10.5354L330.912 16.5488C332.89 17.2031 334.871 18.1168 336.882 18.6252C338.068 18.925 339.204 19.8234 340.339 20.3139L347.375 23.2267C350.152 24.244 353.513 25.4805 355.791 27.4492C357.406 28.8448 358.9 31.3854 359.995 33.25L368.422 47.0642C369.732 49.1421 371.257 51.1078 372.461 53.25C374.703 57.2405 376.41 61.5128 378.499 65.5681C379.366 67.2515 380.547 68.8313 381.473 70.5L387.798 82.9139C389.293 86.087 390.315 89.5319 391.685 92.75C397.269 105.862 402.245 119.028 406.284 132.721C406.874 134.723 407.724 136.657 408.231 138.683L411.281 152.786C412.525 158.205 414.105 163.715 414.994 169.204C415.727 173.734 415.789 178.387 416.309 182.935L417.455 189.966C417.911 193.463 418.001 197.047 418.047 200.57C418.075 202.656 417.647 208.234 419 209.781L419 0L270.181 0ZM0 205.287C0.140481 205.125 0.25751 204.988 0.341616 204.788C1.36327 202.351 0.960042 198.504 1.09255 195.86C1.32038 191.315 1.50286 186.712 2.06679 182.194C2.69683 177.147 3.83473 172.127 4.72497 167.125L8.09591 150.07L11.7637 136.027C13.4923 129.216 15.8523 122.442 18.1565 115.805C23.9313 99.1726 30.8313 82.9903 38.9893 67.375L54.0651 41.2233L58.3806 34.2286C59.9927 31.5857 61.642 28.4817 64.1581 26.5854C66.3622 24.9241 68.6862 24.0781 71.2006 23.0713L78.7507 20.0966L89.79 15.7072C90.3581 15.5004 90.9586 15.48 91.5384 15.2744L114.579 7.76109C115.502 7.47986 116.463 7.47426 117.381 7.21588L131.525 3.625L142.75 1.404C144.474 1.07026 146.928 1.00964 148.401 0.0872822L148.531 0L-0 -0L0 205.287ZM273.99 139.847C264.927 140.728 255.39 145.99 249.675 153.068C244.28 159.75 241.562 167.84 240.579 176.282C240.241 179.185 239.97 182.079 240.316 185C240.55 186.981 240.788 189.197 241.29 191.125C241.91 193.502 242.854 195.743 243.559 198.079C244.207 200.226 245.446 202.132 246.659 203.993C247.414 205.153 248.05 206.481 248.903 207.559C249.628 208.475 250.614 209.228 251.422 210.078C253.729 212.506 255.97 214.822 258.825 216.61L259.462 217.076C262.279 219.236 266.113 220.446 269.539 221.232C270.399 221.429 271.301 221.768 272.177 221.848C275.072 222.113 278.154 222.013 281.058 221.897C290.05 220.831 299.287 215.793 304.9 208.623C313.063 198.197 315.481 184.876 313.749 171.971C313.62 171.003 313.278 170.07 313.044 169.125C310.73 159.801 305.109 151.57 297.378 145.813C291.056 141.105 282.227 138.819 274.398 139.766L273.99 139.847ZM131.062 139.844C129.757 139.972 128.506 140.082 127.25 140.484C124.957 141.22 122.702 141.851 120.488 142.831C113.278 146.023 106.894 151.371 103.177 158.413C99.0662 166.199 97.3671 174.039 97.4806 182.815C97.5146 185.444 97.6612 188.706 98.4391 191.208C98.9659 192.903 99.3074 194.72 99.9286 196.365C101.517 200.572 104.138 205.237 107.024 208.648C107.655 209.394 108.511 209.902 109.167 210.626C111.879 213.618 115.145 216.585 118.75 218.49C121.585 219.988 125.911 221.477 129.125 221.814C132.161 222.133 135.458 222.009 138.506 221.926C148.976 220.008 157.692 214.929 163.795 206.08C169.885 197.249 172.027 186.617 171.192 176.057C171.068 174.483 171.024 172.819 170.733 171.27C168.773 160.839 162.184 150.994 153.363 145.074C148.138 141.567 141.879 139.752 135.613 139.65C134.262 139.628 132.639 139.543 131.311 139.78L131.062 139.844ZM419 242.233L418.908 242.39C417.877 244.266 418.017 247.135 418 249.24L417.942 257.505C417.907 258.984 417.982 260.746 417.257 262.07C416.788 262.928 415.917 263.558 415.184 264.19C411.91 267.015 407.855 269.133 404.25 271.528L390.691 280.375L375.517 288.636L356.5 298.531C354.767 299.353 352.928 300.449 351.107 301.043C349.373 301.609 347.764 302.466 346.079 303.162L337.717 306.375L318.371 313.304C316.982 313.835 315.211 314.209 313.966 315L419 315L419 242.233ZM0 247.453L-0 315L104.243 315C102.868 314.268 101.448 313.881 100.031 313.271L84.7287 307.337C81.6536 306.246 78.525 305.441 75.4905 304.188L66.3072 299.875C47.9733 291.878 30.1461 282.184 13.5005 271.094C11.4524 269.729 1.87113 263.347 1.54992 261.401C1.33233 260.082 1.08526 258.818 1.02885 257.477C0.922023 254.936 1.52081 249.587 0.104439 247.589L0 247.453ZM149.88 0C153.249 3.87264 155.499 8.5054 157.743 13.0973C159.172 16.02 160.681 18.9653 161.636 22.0789C163.891 21.9435 166.274 22.0494 168.5 21.7728C175.194 20.9411 181.862 19.6189 188.607 19.1963L198.755 19.044L212.125 18.6993C215.612 18.6946 219.056 19.0881 222.528 19.2313L230.707 19.2873C232.276 19.3273 233.766 19.6627 235.315 19.8193C236.58 19.9471 237.81 19.8556 239.09 20.0491C240.566 20.272 242.003 20.6811 243.491 20.8389C244.842 20.9821 246.207 20.6958 247.587 20.8776C248.907 21.0514 250.19 21.4722 251.5 21.7062C252.683 21.9175 253.892 21.9496 255.078 22.1339C255.725 22.2344 256.446 22.6224 257.088 22.4769C259.852 18.0691 261.944 13.0329 264.205 8.34277C265.538 5.57718 267.148 2.85226 268.273 -0L149.88 0Z"/>
</svg>
