<?xml version="1.0" encoding="utf-8" ?>
<svg xmlns="http://www.w3.org/2000/svg" xmlns:xlink="http://www.w3.org/1999/xlink" width="34" height="34">
	<path fill="white" transform="scale(0.695137 0.695137)" d="M30.7154 7.125L30.8259 7.10261C31.5577 6.97922 32.5973 7.30785 33.3288 7.45845C35.9569 7.99945 38.4311 8.55048 40.6648 10.1425C43.6295 12.2557 44.4902 15.7723 45.55 19.0265C46.1277 20.8005 46.7927 22.5119 47.1022 24.3634C47.5331 26.9411 47.9898 29.5536 48.0283 32.17C48.0371 32.7662 48.1635 33.7299 48.0346 34.292C47.9694 34.5762 47.55 35.0986 47.375 35.3417C45.3182 38.1995 40.4738 40.3807 37.0584 40.9321C36.206 41.0696 35.0773 41.1451 34.3616 40.6118C33.7962 40.1906 32.8689 39.1641 32.7806 38.4582C32.7533 38.2396 32.7956 38.1894 32.9256 38.0171C33.506 37.2476 36.405 36.6293 37.4018 36.0955C38.4236 35.5483 40.0356 34.7592 40.393 33.5782L39.9471 33.1039C38.7505 32.9308 37.3781 34.1504 36.345 34.7089C30.7829 37.7158 21.9839 37.6722 16.0944 35.6402C14.8521 35.2116 13.5823 34.5982 12.4111 34.0005C11.9708 33.7759 11.5667 33.389 11.0947 33.2508C10.4386 33.0588 10.2161 33.012 9.625 33.3383C9.82228 35.3184 13.4537 36.6189 15.125 37.2648C15.9251 37.574 16.7063 37.6578 17.2773 38.375C16.9897 39.1805 16.0431 40.0999 15.503 40.7823C15.1637 40.9881 14.8319 41.0604 14.4368 41.0459C10.5959 40.9049 5.67025 38.7927 3.06426 35.9715C1.75878 34.5582 1.91771 32.8182 1.99018 31.0117C2.19401 25.9313 4.67125 14.1091 8.50224 10.6174C10.7922 8.53023 16.2826 7.04171 19.375 7.17854C19.7903 7.56357 19.8538 7.56409 19.8786 8.125C18.5134 9.13123 16.4075 9.56933 14.803 10.1038C13.6854 10.4761 12.6615 11.0468 11.625 11.5987C11.2274 12.1996 11.125 12.3599 11.125 13.0881C11.2827 13.1362 11.5989 13.2822 11.75 13.2787C12.8717 13.2524 15.0442 11.8364 16.2068 11.4391C18.1424 10.7777 20.2309 10.2727 22.2694 10.0607C26.11 9.66119 30.3928 10.0878 34 11.5017C35.4823 12.0828 36.9306 12.9272 38.5 13.2567L38.9685 12.875L38.8796 12.125C36.9776 9.98803 33.2535 9.31925 30.625 8.40651L30.3232 7.75L30.7154 7.125ZM30.4807 22.375C29.6471 22.6824 29.1371 23.0659 28.7562 23.8875C28.1456 25.2048 28.1678 26.74 28.6639 28.0835C28.8909 28.6984 29.2463 29.158 29.8514 29.434C30.5117 29.735 31.5629 30.0965 32.2629 29.8402L32.375 29.7939C33.6295 29.1362 34.0965 28.7106 34.5158 27.3642C34.9513 25.9661 34.8641 25.101 34.1626 23.7681C33.7601 23.0032 33.2438 22.5248 32.4196 22.2725C31.7398 22.0643 31.1514 22.1999 30.4807 22.375ZM17.4234 22.375C16.5943 22.7015 16.0863 23.1456 15.7245 23.9737C15.1614 25.2625 15.1576 26.7981 15.6698 28.1058C15.8816 28.6467 16.3173 29.2119 16.8623 29.4474C17.5394 29.7399 18.6289 30.0908 19.3296 29.7968L19.375 29.7773C20.5303 29.1803 21.0817 28.7698 21.4805 27.5183C21.9363 26.0873 21.9226 25.1889 21.2035 23.8093C20.7882 23.0126 20.2054 22.5128 19.3526 22.2522C18.6933 22.0508 18.0731 22.2091 17.4234 22.375Z"/>
</svg>
