<?xml version="1.0" encoding="utf-8" ?>
<svg xmlns="http://www.w3.org/2000/svg" xmlns:xlink="http://www.w3.org/1999/xlink" width="39" height="49">
	<path fill="white" transform="scale(0.818859 1.02835)" d="M7.01747 6.125L7.41372 6.03842C9.30147 5.6772 11.8535 5.75497 13.4274 6.8202C14.346 8.04031 14.2327 10.4666 14.2166 11.9336C15.7463 12.0926 17.3733 11.9006 18.9149 11.8682C18.9387 10.2323 18.81 8.3918 19.3511 6.83367C20.4401 5.8325 21.245 5.91814 22.6747 5.92133C24.3573 5.92509 27.1585 5.5158 28.4347 6.81066C29.3377 7.72686 29.2279 10.7016 29.2208 11.9312C30.7498 12.0925 32.3799 11.9046 33.9208 11.8689C33.9443 10.2526 33.8097 8.41192 34.35 6.875C34.8963 6.3701 35.1446 6.07077 35.9094 5.96827C37.1863 5.79716 40.1528 5.7243 41.1602 6.50317C41.9864 7.14196 41.905 7.45873 42.0336 8.43741L41.9955 14.4302C41.8766 15.6881 40.8315 16.9172 39.898 17.6935C38.8959 18.5268 37.5754 19.5822 36.2874 19.905C33.7987 20.5289 30.5469 20.1174 27.9593 20.1291C23.0033 20.1513 17.8522 20.4705 12.9162 20.0176C10.9455 19.8367 8.44248 18.4898 7.17159 16.9516C5.40573 14.8144 5.81224 9.94874 6.05834 7.35238C6.12186 6.68229 6.5177 6.53808 7.01747 6.125Z"/>
	<path fill="white" transform="scale(0.818859 1.02835)" d="M17.7112 22.8683L28.3051 22.8074C31.0534 22.7992 33.9762 22.5841 36.6787 23.1209C37.4933 26.2026 40.6727 38.5891 39.7864 40.8117C39.4477 41.6613 39.0166 42.0716 38.1941 42.4235C36.2877 43.2392 34.1987 43.0437 32.1685 43.037C31.2982 43.0341 30.23 43.1531 29.4116 42.8258C28.8222 41.8275 29.0064 40.3524 28.9882 39.2225C28.9508 36.8902 29.0143 34.4789 28.1252 32.2835C27.9091 31.9666 27.7435 31.6234 27.4862 31.3342C26.8352 30.6023 25.2818 30.1567 24.3114 30.1035C23.0614 30.035 21.7149 30.4731 20.7861 31.32C18.9618 32.9834 19.2463 35.7784 19.1868 38L18.9961 42.9623C16.7554 43.0972 10.941 43.5279 9.21312 42.1789C8.3851 41.5324 8.2208 40.6103 8.10514 39.6231C7.9363 38.1821 8.39617 36.6974 8.69834 35.3023L9.77185 29.9049C10.0784 28.2959 10.4369 24.4048 11.375 23.2238C12.651 22.5583 16.1729 22.8853 17.7112 22.8683Z"/>
</svg>
