<svg xmlns="http://www.w3.org/2000/svg" width="25" height="38" viewBox="0 0 25 38" fill="none">
  <path d="M19.5182 5.34886C19.7962 4.86594 19.7115 2.43721 19.66 0.958797C19.6458 0.551464 19.6341 0.216002 19.6332 0.0135914L23.1198 0.00879509C23.2108 0.00925408 23.3046 0.00690001 23.3997 0.00451253C23.7869 -0.00521105 24.1961 -0.0154888 24.5328 0.16146L24.6376 1.0258C24.4001 2.8648 24.4484 4.85476 24.4954 6.7874C24.5131 7.51487 24.5305 8.23422 24.5325 8.93433C23.9026 9.10821 12.5985 9.12952 11.8616 8.96568L11.6209 8.96182L0.80095 8.98354L0.719727 7.4095C0.786112 6.80445 0.774068 6.1668 0.762242 5.54069C0.757595 5.29466 0.752982 5.05041 0.753174 4.81062L0.755569 0.0429249L5.62378 0.0311781L5.62549 5.18149L5.93122 5.36821C6.31287 5.37127 6.70477 5.38499 7.10031 5.39884C8.00157 5.43041 8.92177 5.46264 9.7826 5.37079L10.1842 5.38302C10.3837 5.12373 10.3625 4.71778 10.3434 4.35135C10.338 4.24954 10.3329 4.15079 10.3327 4.05908L10.3204 0.0347919L10.5 0.0326328V1.13556e-09H13.5L13.5011 0.0197278L14.8875 0.0219312L14.8923 5.41843L18.2502 5.3875C18.3478 5.38865 18.45 5.39297 18.5544 5.39738C18.8788 5.41108 19.2242 5.42568 19.5182 5.34886Z" fill="white"/>
  <path d="M2.08203 26.4464L2.45468 26.853L2.08078 26.4464L0 37.9607L8.02556 37.9371C8.36333 37.9388 8.709 37.9326 9.05781 37.9263C9.92717 37.9106 10.816 37.8946 11.65 38L11.7288 33.1646C11.7304 32.9556 11.7272 32.7393 11.724 32.5191C11.7124 31.7288 11.7001 30.8894 11.9032 30.1673C12.0404 29.6804 12.3065 29.2749 12.6689 28.9319C13.6356 28.0162 14.6006 27.7948 15.9034 27.8511C16.498 27.8768 17.2964 28.2929 17.7657 28.6621L18.6463 29.521C18.7919 30.2944 18.7795 31.1324 18.7675 31.9443C18.7639 32.1827 18.7604 32.4188 18.761 32.6504L18.7541 37.9952L24.9999 37.9452L21.6135 17.9978L21.6144 17.9972C21.6432 17.6215 21.5427 17.1432 21.4517 16.7104C21.4167 16.5439 21.3831 16.3841 21.3588 16.2395C21.2952 15.8593 21.2273 15.4822 21.1596 15.1062C20.9683 14.0433 20.7786 12.9895 20.6904 11.8999C20.2507 11.6912 19.1228 11.7461 18.2861 11.7867C18.0046 11.8004 17.7561 11.8125 17.5777 11.8124L7.33582 11.8167L4.77564 11.8102L2.08203 26.4464Z" fill="white"/>
</svg>