<svg xmlns="http://www.w3.org/2000/svg" width="23" height="22" fill="none" viewBox="0 0 23 22">
    <path fill="#fff"
        d="M10.31.527c2.276-.15 4.43.173 6.507 1.136 2.273 1.055 4.214 2.907 5.076 5.295.703 1.947.624 4.148-.26 6.023-1.8 3.817-6.046 5.907-10.153 5.856-.661-.008-1.314-.08-1.972-.14-.4-.038-.815-.12-1.202.02-.44.213-.781.584-1.157.887-1.128.908-2.441 1.587-3.9 1.73-.335.032-.638.046-.896-.168-.005-.088-.033-.23-.017-.313.04-.202.604-.513.772-.65.26-.21.485-.454.688-.718.488-.636.661-1.425.666-2.217 0-.143.028-.393-.01-.526-.031-.105-.236-.265-.317-.337-.32-.282-.65-.557-.951-.858-1.324-1.32-2.228-3.052-2.47-4.91-.286-2.205.4-4.35 1.75-6.093C4.35 2.113 7.336.91 10.312.527Zm.706 7.56c-.496.246-.838.434-1.026.993-.159.473-.151.973.078 1.422.204.403.492.58.92.717.315.101.742.09 1.069.044.475-.237.842-.582 1.014-1.102.13-.395.058-.893-.129-1.26a1.59 1.59 0 0 0-.967-.8c-.3-.095-.652-.06-.959-.014Zm-4.934-.01c-.505.226-.863.396-1.072.947-.155.41-.184.946.003 1.352.19.412.407.642.846.8.361.13.74.129 1.12.101.486-.202.831-.498 1.037-.993.182-.439.138-.89-.047-1.322a1.56 1.56 0 0 0-.828-.8c-.355-.14-.685-.13-1.06-.085Zm10.005 0c-.5.217-.857.382-1.067.924-.172.444-.2.954-.002 1.396.178.397.407.616.821.771.367.137.706.123 1.091.116.493-.176.82-.438 1.05-.917.205-.431.174-.887.015-1.328a1.493 1.493 0 0 0-.75-.83c-.383-.18-.745-.181-1.158-.132Z" />
</svg>
  