<svg xmlns="http://www.w3.org/2000/svg" width="25" height="25" viewBox="0 0 25 25" fill="none">
  <path d="M11.3323 0.0407259C14.3308 -0.195538 17.5043 0.596591 19.9339 2.40634C22.6387 4.42115 24.4251 7.47835 24.8869 10.8059C25.3137 13.881 24.5257 17.3186 22.6358 19.81C20.9872 21.9833 18.666 23.7142 16.0287 24.4831C15.2462 24.7113 14.4178 24.8063 13.6126 24.9176L13.5928 24.9204C10.8576 25.3022 7.40524 24.273 5.21494 22.6249C2.31142 20.4401 0.612077 17.527 0.105592 13.9342C-0.336208 10.8003 0.634435 7.42843 2.52917 4.91542C4.71709 2.01358 7.78926 0.534124 11.3323 0.0407259ZM12.3819 6.25493C11.9561 6.38781 11.6634 6.49871 11.444 6.92106C11.2204 7.35161 11.303 8.02844 11.2968 8.50625L11.3079 11.2449L8.7583 11.2469C8.29783 11.2483 7.76419 11.2075 7.31597 11.308C7.07266 11.3625 6.85092 11.4142 6.66762 11.5949C6.46709 11.7927 6.30512 12.1608 6.30085 12.4441C6.29679 12.7122 6.41118 13.152 6.60542 13.3406C6.86501 13.5926 7.26285 13.7289 7.62205 13.7194L11.282 13.7089L11.292 16.4747C11.3006 16.8705 11.2677 17.3615 11.3475 17.7445C11.3928 17.9625 11.4721 18.2032 11.6336 18.3635C11.8352 18.5635 12.3258 18.7044 12.6088 18.6987L12.6974 18.6935C13.0453 18.6073 13.3141 18.4626 13.5068 18.1477C13.7815 17.6989 13.7218 17.0257 13.7304 16.5174L13.7486 13.7219C14.7978 13.6522 15.8484 13.7195 16.8997 13.6863C17.4377 13.6693 18.0186 13.7622 18.4196 13.3069C18.5853 13.1188 18.7319 12.7742 18.7113 12.5231C18.6877 12.2332 18.4804 11.6963 18.2514 11.5087C17.6996 11.0567 14.656 11.2411 13.7573 11.2432L13.7349 8.69595C13.7309 8.23403 13.775 7.71048 13.6684 7.26107C13.6076 7.00478 13.4851 6.73676 13.2962 6.54913C13.0941 6.3484 12.6584 6.26612 12.3819 6.25493Z" fill="white"/>
</svg>