<svg xmlns="http://www.w3.org/2000/svg" width="15" height="25" viewBox="0 0 15 25" fill="none">
    <path
        d="M6.25041 20.507C6.66883 20.4638 7.07051 20.4391 7.47869 20.5693C7.99644 20.7344 8.64793 21.0873 8.90043 21.5978C9.15734 22.1171 9.28974 22.6671 9.10919 23.2116C8.81249 24.1066 8.17547 24.5246 7.37985 24.925C7.11898 24.9843 6.68909 25.0373 6.43022 24.9652C5.84127 24.8013 5.25938 24.3566 4.96848 23.8178C4.71078 23.3404 4.5382 22.6598 4.70564 22.1303C4.95375 21.3457 5.56013 20.8767 6.25041 20.507Z"
        fill="white" />
    <path
        d="M6.54032 0.0537591C8.48795 -0.149401 10.5231 0.216675 12.2034 1.26427C13.5173 2.08343 14.4894 3.42801 14.8376 4.95145C15.4591 7.67008 14.245 10.0583 12.0818 11.6293C11.1534 12.3035 9.99428 12.9001 9.28038 13.8188C8.56814 14.7354 8.82052 16.0823 8.20006 17.0732C8.01571 17.3677 7.73579 17.6367 7.3891 17.7125C6.79265 17.8428 6.22297 17.7212 5.72078 17.3817C5.28898 17.0898 5.22413 16.4406 5.12895 15.9555C4.85317 14.5502 5.39741 13.3143 6.14822 12.1796C6.87363 11.2954 7.81415 10.6433 8.74465 9.99858C9.44704 9.51191 10.179 9.09013 10.6051 8.31214C11.1127 7.38532 11.1617 6.3553 10.8606 5.34245C10.6497 4.63288 9.96596 3.96286 9.32972 3.62166C8.31306 3.07633 7.09641 3.00161 5.99743 3.34391C4.35252 3.85626 4.09321 4.85542 3.36214 6.23034C3.08078 6.75951 2.74207 7.27573 2.13468 7.45133C1.75261 7.56176 1.27936 7.51059 0.933372 7.31008C0.291556 6.93823 0.187703 6.38251 0 5.71887C0.2159 4.58009 0.532515 3.46865 1.27788 2.55117C2.6288 0.888241 4.48391 0.261675 6.54032 0.0537591Z"
        fill="white" />
</svg>