<svg xmlns="http://www.w3.org/2000/svg" width="25" height="26" viewBox="0 0 25 26" fill="none">
    <path fill-rule="evenodd" clip-rule="evenodd"
        d="M14.8405 0.856926C14.3533 0.666626 13.7355 0.666626 12.5 0.666626C11.2645 0.666626 10.6467 0.666626 10.1595 0.856926C9.50972 1.11066 8.99353 1.59735 8.72441 2.20991C8.60155 2.48955 8.55348 2.81475 8.53466 3.28911C8.50701 3.98623 8.12783 4.63149 7.48706 4.98029C6.84628 5.32908 6.06399 5.31605 5.40985 4.99008C4.9647 4.76825 4.64195 4.6449 4.32366 4.6054C3.62643 4.51885 2.92128 4.69699 2.36336 5.10063C1.94492 5.40335 1.63603 5.90775 1.01829 6.91654C0.400536 7.92534 0.091668 8.42973 0.0228259 8.92276C-0.0689766 9.58013 0.119971 10.245 0.548089 10.771C0.743496 11.0111 1.01811 11.2129 1.44434 11.4654C2.07093 11.8366 2.4741 12.469 2.47406 13.1666C2.47402 13.8643 2.07086 14.4965 1.44434 14.8676C1.01805 15.1203 0.743378 15.3221 0.547957 15.5623C0.119839 16.0883 -0.0690949 16.753 0.0226945 17.4104C0.0915365 17.9034 0.400418 18.4079 1.01815 19.4166C1.6359 20.4254 1.94478 20.9299 2.36323 21.2325C2.92115 21.6361 3.6263 21.8143 4.32353 21.7278C4.64181 21.6883 4.96453 21.5649 5.40964 21.3431C6.06383 21.0171 6.84617 21.0041 7.48699 21.3529C8.1278 21.7018 8.507 22.347 8.53466 23.0443C8.55348 23.5185 8.60155 23.8438 8.72441 24.1234C8.99353 24.7359 9.50972 25.2226 10.1595 25.4764C10.6467 25.6666 11.2645 25.6666 12.5 25.6666C13.7355 25.6666 14.3533 25.6666 14.8405 25.4764C15.4902 25.2226 16.0064 24.7359 16.2755 24.1234C16.3984 23.8438 16.4466 23.5185 16.4654 23.0441C16.493 22.347 16.8721 21.7018 17.5129 21.3529C18.1537 21.004 18.936 21.0171 19.5902 21.3431C20.0354 21.5649 20.358 21.6881 20.6763 21.7276C21.3735 21.8143 22.0787 21.6361 22.6366 21.2325C23.0551 20.9298 23.3639 20.4254 23.9817 19.4165C24.5994 18.4078 24.9083 17.9034 24.9772 17.4104C25.0689 16.753 24.88 16.0881 24.4519 15.5621C24.2564 15.322 23.9818 15.1201 23.5555 14.8676C22.9291 14.4965 22.5259 13.8641 22.5259 13.1665C22.5259 12.4689 22.9291 11.8368 23.5555 11.4656C23.9819 11.213 24.2566 11.0113 24.4521 10.771C24.8801 10.245 25.0691 9.58021 24.9773 8.92284C24.9084 8.42981 24.5996 7.92541 23.9818 6.91663C23.3641 5.90784 23.0552 5.40344 22.6367 5.10071C22.0788 4.69708 21.3737 4.51894 20.6764 4.60549C20.3581 4.64499 20.0354 4.76833 19.5904 4.99013C18.9362 5.31611 18.1538 5.32915 17.513 4.98033C16.8722 4.63151 16.493 3.9862 16.4652 3.28905C16.4464 2.81473 16.3984 2.48954 16.2755 2.20991C16.0064 1.59735 15.4902 1.11066 14.8405 0.856926ZM12.5 16.9166C14.6967 16.9166 16.4773 15.2378 16.4773 13.1666C16.4773 11.0955 14.6967 9.41663 12.5 9.41663C10.3033 9.41663 8.52257 11.0955 8.52257 13.1666C8.52257 15.2378 10.3033 16.9166 12.5 16.9166Z"
        fill="white" />
</svg>